<?xml version="1.0" standalone="no"?>
<!DOCTYPE svg PUBLIC "-//W3C//DTD SVG 20010904//EN"
 "http://www.w3.org/TR/2001/REC-SVG-20010904/DTD/svg10.dtd">
<svg version="1.0" xmlns="http://www.w3.org/2000/svg"
 width="600.000000pt" height="600.000000pt" viewBox="0 0 600.000000 600.000000"
 preserveAspectRatio="xMidYMid meet">

<g transform="translate(0.000000,600.000000) scale(0.100000,-0.100000)"
fill="#000000" stroke="none">
<path d="M3875 4140 c-4 -6 -65 -10 -150 -10 -85 0 -146 -4 -150 -10 -3 -5
-43 -10 -88 -10 -132 0 -187 -9 -187 -31 0 -18 -25 -19 -732 -19 -617 -1 -737
-3 -758 -15 -14 -8 -39 -14 -57 -15 -17 0 -35 -4 -38 -10 -3 -5 -44 -10 -91
-10 -81 0 -85 -1 -94 -25 -9 -24 -12 -25 -109 -25 -56 0 -103 -4 -106 -10 -10
-16 -81 -12 -95 5 -7 8 -18 15 -25 15 -7 0 -15 9 -18 20 -6 25 -27 26 -27 2 0
-10 -4 -22 -10 -28 -11 -11 -15 -1829 -4 -1858 7 -18 31 -21 68 -6 l26 10 0
865 0 865 49 0 c28 0 53 5 56 10 3 6 50 10 104 10 75 0 101 4 111 15 9 11 33
15 91 15 72 0 79 2 79 20 0 16 7 20 33 20 17 1 43 7 57 15 21 12 141 14 758
15 709 0 734 1 739 19 6 22 56 31 184 31 48 0 91 5 94 10 4 6 65 10 150 10 85
0 146 4 150 10 4 6 97 10 246 10 l239 0 -2 -187 -3 -188 -535 -3 c-519 -2
-535 -3 -555 -22 -18 -19 -19 -22 -5 -48 l16 -27 542 -3 542 -2 0 -410 c0
-388 1 -410 18 -410 10 0 23 -5 29 -11 12 -12 80 -2 89 12 3 5 13 9 23 9 10 0
24 7 31 15 7 8 21 15 31 15 11 0 19 6 19 14 0 18 40 44 76 48 21 2 30 9 32 26
2 13 10 26 18 29 8 3 14 13 14 23 0 14 9 20 33 22 25 2 33 8 35 26 4 26 42 48
66 39 9 -4 16 -17 16 -31 0 -14 5 -28 10 -31 6 -4 10 -81 10 -198 -1 -153 -4
-196 -15 -211 -10 -13 -15 -44 -15 -93 0 -66 -2 -73 -20 -73 -17 0 -20 -7 -20
-44 0 -42 1 -44 35 -50 41 -8 55 -2 55 24 0 32 11 50 31 50 15 0 19 8 21 43 0
23 0 50 -1 61 0 10 4 26 11 34 18 22 19 486 1 504 -7 6 -13 31 -13 55 0 36 -3
43 -19 43 -11 0 -23 5 -26 10 -3 6 -37 10 -76 10 -39 0 -69 -4 -69 -10 0 -5
-11 -10 -25 -10 -17 0 -25 -5 -25 -18 0 -22 -47 -69 -75 -74 -13 -2 -19 -11
-18 -24 2 -15 -8 -25 -36 -37 -21 -9 -41 -17 -44 -17 -13 0 -47 -40 -47 -55 0
-10 -10 -15 -30 -15 l-30 0 0 355 c0 330 1 356 18 361 9 3 26 10 37 14 11 5
31 10 45 12 26 3 37 23 39 70 1 20 -4 27 -21 30 -13 2 -23 10 -23 18 0 8 -8
16 -17 18 -13 2 -18 -3 -18 -17 0 -19 -26 -41 -49 -41 -8 0 -11 70 -11 218 0
199 -2 220 -18 235 -16 15 -52 17 -295 17 -173 0 -278 -4 -282 -10z"/>
<path d="M2705 3685 c-16 -8 -42 -14 -57 -15 -15 0 -30 -4 -33 -10 -4 -6 -100
-10 -254 -10 -273 0 -307 -3 -314 -30 -4 -16 -19 -19 -113 -23 -120 -5 -199
-18 -216 -35 -7 -7 -25 -12 -40 -12 -20 0 -28 -5 -28 -18 0 -10 -5 -23 -12
-30 -9 -9 -8 -21 2 -52 12 -36 16 -40 47 -40 25 0 33 4 33 18 0 30 33 52 78
52 23 0 42 5 42 10 0 6 47 10 120 10 119 0 121 0 130 25 l10 25 279 0 c228 0
284 3 307 15 16 8 36 15 45 15 25 0 54 37 41 52 -5 7 -12 24 -14 37 -4 30 -15
33 -53 16z m-625 -65 c0 -5 -5 -10 -11 -10 -5 0 -7 5 -4 10 3 6 8 10 11 10 2
0 4 -4 4 -10z"/>
<path d="M3377 3222 c-10 -10 -17 -33 -17 -51 0 -24 -6 -34 -24 -41 -16 -6
-26 -20 -31 -42 -9 -45 -46 -98 -67 -98 -11 0 -18 -8 -18 -19 0 -28 -55 -65
-102 -70 -5 -1 -8 -9 -8 -20 0 -10 -11 -26 -25 -35 -14 -9 -25 -25 -25 -36 0
-12 -5 -17 -13 -14 -7 2 -28 -11 -46 -31 -17 -20 -36 -33 -41 -30 -6 4 -10 26
-10 51 0 37 -3 44 -20 44 -19 0 -20 7 -20 136 0 161 -6 179 -58 169 -43 -8
-72 -31 -72 -56 0 -10 -4 -20 -9 -23 -5 -3 -12 -26 -15 -51 -5 -30 -12 -45
-22 -45 -9 0 -30 -11 -47 -24 -18 -13 -43 -26 -57 -28 -17 -2 -26 -10 -28 -24
-2 -12 -12 -30 -23 -40 -10 -9 -19 -25 -19 -36 0 -10 -6 -18 -14 -18 -14 0
-26 42 -26 91 0 15 -4 31 -10 34 -6 4 -10 53 -10 114 0 83 -3 111 -15 121 -8
6 -13 17 -12 23 1 6 -8 13 -20 15 -16 2 -25 -5 -38 -32 -18 -37 -17 -84 3
-390 l7 -110 30 -8 c41 -12 115 -1 115 17 0 7 9 17 20 20 11 4 20 15 20 26 0
27 19 61 29 54 10 -5 30 16 46 48 9 19 28 28 83 43 6 2 12 15 12 30 0 16 5 24
13 22 7 -3 13 -27 15 -61 3 -49 6 -57 22 -57 18 0 20 -7 20 -57 1 -35 6 -66
15 -77 8 -11 15 -30 15 -42 0 -32 23 -46 72 -42 40 3 43 5 46 33 4 35 28 65
52 65 21 0 40 19 40 40 0 20 44 63 53 53 10 -9 47 27 47 47 0 16 17 26 73 44
9 3 17 13 17 23 0 20 35 56 63 66 9 3 17 16 17 27 0 12 11 33 25 48 14 15 25
39 25 54 0 20 6 27 23 30 19 3 22 10 25 55 3 49 2 52 -29 67 -39 19 -33 20
-52 -2z"/>
</g>
</svg>
